<?xml version="1.0" encoding="utf-8"?>
<!-- Generator: Adobe Illustrator 24.2.1, SVG Export Plug-In . SVG Version: 6.00 Build 0)  -->
<svg version="1.1" id="Layer_1" xmlns="http://www.w3.org/2000/svg" xmlns:xlink="http://www.w3.org/1999/xlink" x="0px" y="0px"
	 viewBox="0 0 37 44" style="enable-background:new 0 0 37 44;" xml:space="preserve">
<style type="text/css">
	.st0{fill:#CB0076;}
	.st1{fill:#FFFFFF;}
	.st2{fill:#FCFDFF;}
</style>
<g>
	<path class="st0" d="M37,41.1c0,2.5-1.8,3.6-4,2.5l-10.1-5.5c-3.5-1.7-5.4-1.7-8.9,0L4,43.6c-2.2,1.1-4,0-4-2.5V4.4
		C0,1.9,1.9,0,4.4,0h28.3C35.1,0,37,1.9,37,4.4V41.1z"/>
	<path class="st1" d="M6.1,27c-1.2,4.4,2.9,8.4,10.5,3.3c0.1,0.7,9.5,7,12.4-3.9l2.6-9.8c0.2-0.9,0.5-1.7,0.4-2.3
		c0-0.3-0.1-0.6-0.3-0.9c-0.2-0.3-0.4-0.7-0.7-0.9c-0.3-0.3-0.7-0.5-1.1-0.7c-0.4-0.2-0.9-0.3-1.4-0.3c-0.6,0-0.8,0.2-0.9,0.7
		L24,25.6c-0.3,1.2-0.8,2-1.1,2.3c-0.3,0.3-0.6,0.6-0.9,0.8c-0.3,0.2-0.6,0.3-0.8,0.4c-0.3,0.1-0.5,0.1-0.7,0.1
		c-0.4,0-1.1,0-0.7-1.8l2-7.7c0.2-0.9,0.4-1.6,0.4-2.2l0,0l0,0c0-0.3-0.1-0.6-0.3-0.9c-0.2-0.3-0.4-0.7-0.7-0.9
		c-0.3-0.3-0.7-0.5-1.1-0.7c-0.4-0.2-0.9-0.3-1.4-0.3c-0.6,0-0.8,0.2-0.9,0.7l-2.6,10.1c-0.3,1.2-0.8,2-1.1,2.3
		c-0.3,0.3-0.6,0.6-0.9,0.8c-0.3,0.2-0.6,0.3-0.8,0.4c-0.3,0.1-0.5,0.1-0.7,0.1c-0.4,0-1.1,0-0.7-1.8l1.2-4.4
		c0.2-0.9,0.4-1.6,0.4-2.2c0-0.3-0.1-0.6-0.3-0.9c-0.2-0.3-0.4-0.7-0.7-0.9c-0.3-0.3-0.7-0.5-1.1-0.7C10.2,18.1,9.7,18,9.2,18
		c-0.7,0-0.8,0.2-0.9,0.7L6.1,27z"/>
	<polygon class="st2" points="14.5,8.2 10.1,8.2 10.1,3.7 8.1,3.7 8.1,8.2 3.6,8.2 3.6,10.2 8.1,10.2 8.1,14.7 10.1,14.7 10.1,10.2 
		14.5,10.2 	"/>
</g>
</svg>
