<?xml version="1.0" encoding="utf-8"?>
<!-- Generator: Adobe Illustrator 24.2.1, SVG Export Plug-In . SVG Version: 6.00 Build 0)  -->
<svg version="1.1" id="Layer_1" xmlns="http://www.w3.org/2000/svg" xmlns:xlink="http://www.w3.org/1999/xlink" x="0px" y="0px"
	 viewBox="0 0 237 44" style="enable-background:new 0 0 237 44;" xml:space="preserve">
<style type="text/css">
	.st0{fill:#FFFFFF;}
	.st1{fill:#ABABAB;}
	.st2{fill:#CB0076;}
	.st3{fill:#FCFDFF;}
</style>
<rect x="32" class="st0" width="205" height="33"/>
<rect x="32" class="st1" width="205" height="1"/>
<rect x="236" class="st1" width="1" height="33"/>
<rect x="32" y="32" class="st1" width="205" height="1"/>
<g>
	<path class="st1" d="M58.7,11v7.2c0,1.2-0.4,2.2-1.2,2.8c-0.8,0.7-1.9,1-3.2,1s-2.3-0.3-3.1-1c-0.8-0.6-1.2-1.6-1.2-2.8V11h2.2v7.2
		c0,0.7,0.2,1.3,0.6,1.6c0.4,0.4,0.9,0.5,1.6,0.5s1.2-0.2,1.6-0.5c0.4-0.4,0.6-0.9,0.6-1.6V11H58.7z"/>
	<path class="st1" d="M70.6,21.9h-2.2L64,14.5l0,0v7.4h-2.2V11H64l4.4,7.4l0,0V11h2.2V21.9z"/>
	<path class="st1" d="M76.2,21.9H74V11h2.2V21.9z"/>
	<path class="st1" d="M83.3,19l0.1,0.6l0,0l0.1-0.6l2.4-8h2.3l-3.7,10.9h-2.2L78.6,11h2.3L83.3,19z"/>
	<path class="st1" d="M97.3,17.1h-4.5v3.1h5.3v1.7h-7.4V11h7.4v1.7h-5.3v2.7h4.5V17.1z"/>
	<path class="st1" d="M102.8,17.5v4.3h-2.2V11h4.1c1.2,0,2.2,0.3,2.9,0.8c0.7,0.6,1.1,1.4,1.1,2.4c0,0.6-0.1,1-0.4,1.4
		s-0.7,0.7-1.3,1c0.6,0.2,1.1,0.5,1.4,0.9s0.4,1,0.4,1.6v0.8c0,0.3,0,0.6,0.1,1c0.1,0.3,0.2,0.6,0.4,0.7v0.2H107
		c-0.2-0.2-0.3-0.4-0.4-0.8s-0.1-0.7-0.1-1.1v-0.7c0-0.5-0.1-1-0.4-1.3s-0.7-0.5-1.3-0.5L102.8,17.5L102.8,17.5z M102.8,15.8h1.9
		c0.6,0,1.1-0.1,1.4-0.4c0.3-0.3,0.5-0.6,0.5-1.1s-0.2-0.9-0.5-1.2s-0.7-0.4-1.3-0.4h-1.9L102.8,15.8L102.8,15.8z"/>
	<path class="st1" d="M117.8,19c0-0.4-0.1-0.8-0.4-1c-0.3-0.3-0.8-0.5-1.6-0.7c-1.3-0.4-2.3-0.8-2.9-1.3c-0.7-0.5-1-1.2-1-2.1
		s0.4-1.6,1.1-2.2c0.8-0.6,1.7-0.8,2.9-0.8s2.2,0.3,2.9,1c0.8,0.6,1.1,1.4,1.1,2.3l0,0h-2.1c0-0.5-0.2-0.9-0.5-1.2s-0.8-0.5-1.4-0.5
		s-1,0.1-1.4,0.4c-0.3,0.3-0.5,0.6-0.5,1s0.2,0.7,0.5,0.9s0.9,0.5,1.8,0.8c1.2,0.3,2.1,0.8,2.7,1.3s0.9,1.3,0.9,2.2
		c0,0.9-0.4,1.7-1.1,2.2s-1.7,0.8-2.9,0.8s-2.2-0.3-3.1-0.9s-1.3-1.5-1.3-2.6l0,0h2.1c0,0.6,0.2,1.1,0.6,1.4s0.9,0.5,1.7,0.5
		c0.6,0,1-0.1,1.4-0.4C117.6,19.8,117.8,19.4,117.8,19z"/>
	<path class="st1" d="M128.7,19.5h-3.8l-0.7,2.3H122l3.7-10.9h2.2l3.7,10.9h-2.2L128.7,19.5z M125.4,17.8h2.7l-1.3-4.3l0,0
		L125.4,17.8z"/>
	<path class="st1" d="M136,20.2h4.8v1.7h-7V11h2.2V20.2z"/>
	<path class="st1" d="M155.5,18.4L155.5,18.4l1.6-7.5h2.1l-2.5,10.9h-2l-2-7.2l0,0l-2,7.2h-2L146,11h2.1l1.6,7.4l0,0l2-7.5h1.6
		L155.5,18.4z"/>
	<path class="st1" d="M164,21.9h-2.2V11h2.2V21.9z"/>
	<path class="st1" d="M173.2,19c0-0.4-0.1-0.8-0.4-1c-0.3-0.3-0.8-0.5-1.6-0.7c-1.3-0.4-2.3-0.8-2.9-1.3c-0.7-0.5-1-1.2-1-2.1
		s0.4-1.6,1.1-2.2c0.8-0.6,1.7-0.8,2.9-0.8s2.2,0.3,2.9,1c0.8,0.6,1.1,1.4,1.1,2.3l0,0h-2.1c0-0.5-0.2-0.9-0.5-1.2s-0.8-0.5-1.4-0.5
		c-0.6,0-1,0.1-1.4,0.4c-0.3,0.3-0.5,0.6-0.5,1s0.2,0.7,0.5,0.9s0.9,0.5,1.8,0.8c1.2,0.3,2.1,0.8,2.7,1.3c0.6,0.5,0.9,1.3,0.9,2.2
		c0,0.9-0.4,1.7-1.1,2.2c-0.7,0.5-1.7,0.8-2.9,0.8s-2.2-0.3-3.1-0.9s-1.3-1.5-1.3-2.6l0,0h2.1c0,0.6,0.2,1.1,0.6,1.4
		c0.4,0.3,0.9,0.5,1.7,0.5c0.6,0,1-0.1,1.4-0.4C173.1,19.8,173.2,19.4,173.2,19z"/>
	<path class="st1" d="M187.1,21.9h-2.2v-4.5h-4.4v4.5h-2.2V11h2.2v4.7h4.4V11h2.2V21.9z"/>
	<path class="st1" d="M192.5,20.2h4.8v1.7h-7V11h2.2V20.2z"/>
	<path class="st1" d="M202.2,21.9H200V11h2.2V21.9z"/>
	<path class="st1" d="M211.4,19c0-0.4-0.1-0.8-0.4-1c-0.3-0.3-0.8-0.5-1.6-0.7c-1.3-0.4-2.3-0.8-2.9-1.3c-0.7-0.5-1-1.2-1-2.1
		s0.4-1.6,1.1-2.2c0.8-0.6,1.7-0.8,2.9-0.8s2.2,0.3,2.9,1c0.8,0.6,1.1,1.4,1.1,2.3l0,0h-2.1c0-0.5-0.2-0.9-0.5-1.2s-0.8-0.5-1.4-0.5
		s-1,0.1-1.4,0.4c-0.3,0.3-0.5,0.6-0.5,1s0.2,0.7,0.5,0.9s0.9,0.5,1.8,0.8c1.2,0.3,2.1,0.8,2.7,1.3s0.9,1.3,0.9,2.2
		c0,0.9-0.4,1.7-1.1,2.2s-1.7,0.8-2.9,0.8s-2.2-0.3-3.1-0.9s-1.3-1.5-1.3-2.6l0,0h2.1c0,0.6,0.2,1.1,0.6,1.4s0.9,0.5,1.7,0.5
		c0.6,0,1-0.1,1.4-0.4C211.3,19.8,211.4,19.4,211.4,19z"/>
	<path class="st1" d="M224,12.7h-3.1v9.2h-2.2v-9.2h-3.1V11h8.3v1.7H224z"/>
</g>
<g>
	<path class="st2" d="M37,41.1c0,2.5-1.8,3.6-4,2.5l-10.1-5.5c-3.5-1.7-5.4-1.7-8.9,0L4,43.6c-2.2,1.1-4,0-4-2.5V4.4
		C0,1.9,1.9,0,4.4,0h28.3C35.1,0,37,1.9,37,4.4V41.1z"/>
	<path class="st0" d="M6.1,27c-1.2,4.4,2.9,8.4,10.5,3.3c0.1,0.7,9.5,7,12.4-3.9l2.6-9.8c0.2-0.9,0.5-1.7,0.4-2.3
		c0-0.3-0.1-0.6-0.3-0.9c-0.2-0.3-0.4-0.7-0.7-0.9c-0.3-0.3-0.7-0.5-1.1-0.7s-0.9-0.3-1.4-0.3c-0.6,0-0.8,0.2-0.9,0.7L24,25.6
		c-0.3,1.2-0.8,2-1.1,2.3c-0.3,0.3-0.6,0.6-0.9,0.8c-0.3,0.2-0.6,0.3-0.8,0.4c-0.3,0.1-0.5,0.1-0.7,0.1c-0.4,0-1.1,0-0.7-1.8l2-7.7
		c0.2-0.9,0.4-1.6,0.4-2.2l0,0l0,0c0-0.3-0.1-0.6-0.3-0.9c-0.2-0.3-0.4-0.7-0.7-0.9c-0.3-0.3-0.7-0.5-1.1-0.7s-0.9-0.3-1.4-0.3
		c-0.6,0-0.8,0.2-0.9,0.7l-2.6,10.1c-0.3,1.2-0.8,2-1.1,2.3s-0.6,0.6-0.9,0.8c-0.3,0.2-0.6,0.3-0.8,0.4c-0.3,0.1-0.5,0.1-0.7,0.1
		c-0.4,0-1.1,0-0.7-1.8l1.2-4.4c0.2-0.9,0.4-1.6,0.4-2.2c0-0.3-0.1-0.6-0.3-0.9s-0.4-0.7-0.7-0.9c-0.3-0.3-0.7-0.5-1.1-0.7
		C10.2,18.1,9.7,18,9.2,18c-0.7,0-0.8,0.2-0.9,0.7L6.1,27z"/>
	<polygon class="st3" points="14.5,8.2 10.1,8.2 10.1,3.7 8.1,3.7 8.1,8.2 3.6,8.2 3.6,10.2 8.1,10.2 8.1,14.7 10.1,14.7 10.1,10.2 
		14.5,10.2 	"/>
</g>
</svg>
