<?xml version="1.0" encoding="utf-8"?>
<!-- Generator: Adobe Illustrator 24.2.1, SVG Export Plug-In . SVG Version: 6.00 Build 0)  -->
<svg version="1.1" id="Layer_1" xmlns="http://www.w3.org/2000/svg" xmlns:xlink="http://www.w3.org/1999/xlink" x="0px" y="0px"
	 viewBox="0 0 302 44" style="enable-background:new 0 0 302 44;" xml:space="preserve">
<style type="text/css">
	.st0{fill:#ABABAB;}
	.st1{fill:#CB0076;}
	.st2{fill:#FFFFFF;}
	.st3{fill:#FCFDFF;}
</style>
<rect x="32" class="st0" width="270" height="33"/>
<g>
	<path class="st1" d="M37,41.1c0,2.5-1.8,3.6-4,2.5l-10.1-5.5c-3.5-1.7-5.4-1.7-8.9,0L4,43.6c-2.2,1.1-4,0-4-2.5V4.4
		C0,1.9,1.9,0,4.4,0h28.3C35.1,0,37,1.9,37,4.4V41.1z"/>
	<path class="st2" d="M6.1,27c-1.2,4.4,2.9,8.4,10.5,3.3c0.1,0.7,9.5,7,12.4-3.9l2.6-9.8c0.2-0.9,0.5-1.7,0.4-2.3
		c0-0.3-0.1-0.6-0.3-0.9c-0.2-0.3-0.4-0.7-0.7-0.9c-0.3-0.3-0.7-0.5-1.1-0.7c-0.4-0.2-0.9-0.3-1.4-0.3c-0.6,0-0.8,0.2-0.9,0.7
		L24,25.6c-0.3,1.2-0.8,2-1.1,2.3c-0.3,0.3-0.6,0.6-0.9,0.8c-0.3,0.2-0.6,0.3-0.8,0.4c-0.3,0.1-0.5,0.1-0.7,0.1
		c-0.4,0-1.1,0-0.7-1.8l2-7.7c0.2-0.9,0.4-1.6,0.4-2.2l0,0l0,0c0-0.3-0.1-0.6-0.3-0.9c-0.2-0.3-0.4-0.7-0.7-0.9
		c-0.3-0.3-0.7-0.5-1.1-0.7c-0.4-0.2-0.9-0.3-1.4-0.3c-0.6,0-0.8,0.2-0.9,0.7l-2.6,10.1c-0.3,1.2-0.8,2-1.1,2.3
		c-0.3,0.3-0.6,0.6-0.9,0.8c-0.3,0.2-0.6,0.3-0.8,0.4c-0.3,0.1-0.5,0.1-0.7,0.1c-0.4,0-1.1,0-0.7-1.8l1.2-4.4
		c0.2-0.9,0.4-1.6,0.4-2.2c0-0.3-0.1-0.6-0.3-0.9c-0.2-0.3-0.4-0.7-0.7-0.9c-0.3-0.3-0.7-0.5-1.1-0.7C10.2,18.1,9.7,18,9.2,18
		c-0.7,0-0.8,0.2-0.9,0.7L6.1,27z"/>
	<polygon class="st3" points="14.5,8.2 10.1,8.2 10.1,3.7 8.1,3.7 8.1,8.2 3.6,8.2 3.6,10.2 8.1,10.2 8.1,14.7 10.1,14.7 10.1,10.2 
		14.5,10.2 	"/>
</g>
<g>
	<path class="st2" d="M57.1,19.1h-4.6l-1,2.8H50L54.2,11h1.3l4.1,10.8h-1.5L57.1,19.1z M53,17.9h3.7L54.8,13l0,0L53,17.9z"/>
	<path class="st2" d="M61.9,21.9V11.1h3.3c1.4,0,2.6,0.4,3.4,1.3c0.9,0.9,1.3,2,1.3,3.4v1.3c0,1.3-0.4,2.5-1.3,3.4s-2,1.3-3.4,1.3
		L61.9,21.9L61.9,21.9z M63.4,12.2v8.5h1.9c1,0,1.8-0.4,2.3-1c0.5-0.6,0.9-1.5,0.9-2.5v-1.5c0-1-0.3-1.9-0.9-2.5
		c-0.6-0.6-1.3-1-2.3-1H63.4z"/>
	<path class="st2" d="M72.9,21.9V11.1h3.3c1.4,0,2.6,0.4,3.4,1.3c0.9,0.9,1.3,2,1.3,3.4v1.3c0,1.3-0.4,2.5-1.3,3.4s-2,1.3-3.4,1.3
		L72.9,21.9C72.9,21.8,72.9,21.9,72.9,21.9z M74.4,12.2v8.5h1.9c1,0,1.8-0.4,2.3-1c0.5-0.6,0.9-1.5,0.9-2.5v-1.5
		c0-1-0.3-1.9-0.9-2.5c-0.6-0.6-1.3-1-2.3-1H74.4z"/>
	<path class="st2" d="M96.2,12.2h-3.5v9.7h-1.4v-9.7h-3.5v-1.2h8.4V12.2z"/>
	<path class="st2" d="M106.7,17.4c0,1.3-0.4,2.4-1.3,3.3c-0.8,0.9-1.9,1.3-3.2,1.3c-1.3,0-2.3-0.4-3-1.3c-0.8-0.9-1.2-2-1.2-3.3
		v-1.9c0-1.3,0.4-2.4,1.2-3.3c0.8-0.9,1.8-1.3,3-1.3c1.3,0,2.3,0.4,3.2,1.3c0.9,0.9,1.3,2,1.3,3.3V17.4z M105.3,15.5
		c0-1-0.3-1.8-0.8-2.4c-0.5-0.6-1.3-1-2.2-1c-0.9,0-1.5,0.4-2.1,1s-0.8,1.4-0.8,2.4v2c0,1,0.3,1.8,0.8,2.4c0.5,0.6,1.2,1,2.1,1
		c0.9,0,1.6-0.4,2.2-1c0.5-0.6,0.8-1.4,0.8-2.4V15.5z"/>
	<path class="st2" d="M124.3,11.1v7.2c0,1.3-0.4,2.2-1.2,2.8c-0.8,0.6-1.9,1-3.1,1s-2.3-0.4-3.1-1c-0.8-0.6-1.2-1.6-1.2-2.8v-7.2
		h2.2v7.2c0,0.7,0.2,1.3,0.5,1.6c0.4,0.4,0.9,0.5,1.6,0.5s1.3-0.2,1.6-0.5c0.4-0.4,0.5-0.9,0.5-1.6v-7.2
		C122.1,11.1,124.3,11.1,124.3,11.1z"/>
	<path class="st2" d="M136.2,21.9H134l-4.4-7.4l0,0v7.4h-2.2V11.1h2.2l4.4,7.4l0,0v-7.3h2.2V21.9z"/>
	<path class="st2" d="M141.8,21.9h-2.2V11.1h2.2V21.9z"/>
	<path class="st2" d="M148.8,19l0.1,0.6l0,0l0.1-0.5l2.3-8h2.3L150,21.9h-2.2l-3.7-10.8h2.3L148.8,19z"/>
	<path class="st2" d="M162.7,17.1h-4.5v3h5.3v1.7h-7.4V11.1h7.4v1.6h-5.2v2.7h4.5L162.7,17.1L162.7,17.1z"/>
	<path class="st2" d="M168.2,17.5v4.3H166V11.1h4.1c1.3,0,2.2,0.3,2.9,0.8s1.1,1.3,1.1,2.3c0,0.5-0.2,1.1-0.4,1.4
		c-0.3,0.4-0.7,0.7-1.3,1c0.6,0.2,1.1,0.5,1.3,1s0.4,1,0.4,1.6V20c0,0.3,0,0.6,0.1,1c0.1,0.4,0.2,0.5,0.4,0.7v0.2h-2.2
		c-0.2-0.2-0.4-0.4-0.4-0.8c-0.1-0.4-0.1-0.7-0.1-1.1v-0.8c0-0.5-0.2-1-0.4-1.3s-0.7-0.4-1.3-0.4C170.3,17.5,168.2,17.5,168.2,17.5z
		 M168.2,15.9h1.9c0.6,0,1.1-0.1,1.3-0.4c0.3-0.3,0.4-0.6,0.4-1.2c0-0.5-0.2-0.9-0.4-1.2c-0.3-0.3-0.7-0.5-1.3-0.5h-1.9V15.9z"/>
	<path class="st2" d="M183.1,19.1c0-0.4-0.2-0.7-0.4-1c-0.3-0.3-0.8-0.4-1.5-0.7c-1.3-0.4-2.2-0.8-3-1.3c-0.6-0.5-1-1.3-1-2.1
		c0-0.9,0.4-1.6,1.2-2.2c0.8-0.5,1.7-0.8,2.9-0.8c1.2,0,2.2,0.4,2.9,1c0.7,0.6,1.1,1.4,1.1,2.3v0.1h-2.1c0-0.5-0.2-0.9-0.5-1.3
		c-0.4-0.3-0.8-0.4-1.4-0.4c-0.5,0-1,0.1-1.3,0.4c-0.4,0.3-0.4,0.6-0.4,1s0.2,0.6,0.5,0.9c0.4,0.3,0.9,0.4,1.8,0.7
		c1.2,0.4,2.1,0.8,2.7,1.3c0.6,0.5,0.9,1.3,0.9,2.2s-0.4,1.7-1.1,2.2c-0.7,0.4-1.7,0.8-2.9,0.8c-1.2,0-2.2-0.3-3-0.9
		s-1.3-1.4-1.3-2.6v-0.1h2.2c0,0.6,0.2,1.1,0.6,1.4c0.4,0.3,1,0.4,1.6,0.4s1.1-0.1,1.3-0.4C183,19.8,183.1,19.5,183.1,19.1z"/>
	<path class="st2" d="M194,19.6h-3.8l-0.7,2.3h-2.2l3.8-10.8h2.2l3.7,10.8h-2.2L194,19.6z M190.7,17.9h2.7l-1.3-4.2l0,0L190.7,17.9z
		"/>
	<path class="st2" d="M201.3,20.2h4.8v1.7h-7V11.1h2.2V20.2z"/>
	<path class="st2" d="M220.7,18.5L220.7,18.5l1.6-7.4h2.2l-2.5,10.8h-2l-2-7.2l0,0l-2,7.2h-2l-2.8-10.8h2.2l1.5,7.4l0,0l2.1-7.4h1.6
		L220.7,18.5z"/>
	<path class="st2" d="M229.1,21.9H227V11.1h2.2V21.9z"/>
	<path class="st2" d="M238.3,19.1c0-0.4-0.2-0.7-0.4-1c-0.3-0.3-0.8-0.4-1.5-0.7c-1.3-0.4-2.2-0.8-3-1.3c-0.6-0.5-1-1.3-1-2.1
		c0-0.9,0.4-1.6,1.2-2.2c0.8-0.5,1.7-0.8,2.9-0.8c1.2,0,2.2,0.4,2.9,1c0.7,0.6,1.1,1.4,1.1,2.3v0.1h-2.1c0-0.5-0.2-0.9-0.5-1.3
		c-0.4-0.3-0.8-0.4-1.4-0.4c-0.5,0-1,0.1-1.3,0.4c-0.4,0.3-0.4,0.6-0.4,1s0.2,0.6,0.5,0.9c0.4,0.3,0.9,0.4,1.8,0.7
		c1.2,0.4,2.1,0.8,2.7,1.3c0.6,0.5,0.9,1.3,0.9,2.2s-0.4,1.7-1.1,2.2s-1.7,0.8-2.9,0.8c-1.2,0-2.2-0.3-3-0.9s-1.3-1.4-1.3-2.6v-0.1
		h2.2c0,0.6,0.2,1.1,0.6,1.4c0.4,0.3,1,0.4,1.6,0.4c0.6,0,1.1-0.1,1.3-0.4C238.2,19.8,238.3,19.5,238.3,19.1z"/>
	<path class="st2" d="M252.1,21.9H250v-4.5h-4.4v4.5h-2.2V11.1h2.2v4.7h4.4v-4.7h2.2V21.9z"/>
	<path class="st2" d="M257.5,20.2h4.8v1.7h-7V11.1h2.2V20.2z"/>
	<path class="st2" d="M267.1,21.9H265V11.1h2.2V21.9z"/>
	<path class="st2" d="M276.3,19.1c0-0.4-0.2-0.7-0.4-1c-0.3-0.3-0.8-0.4-1.5-0.7c-1.3-0.4-2.2-0.8-3-1.3c-0.6-0.5-1-1.3-1-2.1
		c0-0.9,0.4-1.6,1.2-2.2c0.8-0.5,1.7-0.8,2.9-0.8c1.2,0,2.2,0.4,2.9,1c0.7,0.6,1.1,1.4,1.1,2.3v0.1h-2.1c0-0.5-0.2-0.9-0.5-1.3
		c-0.4-0.3-0.8-0.4-1.4-0.4c-0.5,0-1,0.1-1.3,0.4c-0.4,0.3-0.4,0.6-0.4,1s0.2,0.6,0.5,0.9c0.4,0.3,0.9,0.4,1.8,0.7
		c1.2,0.4,2.1,0.8,2.7,1.3c0.6,0.5,0.9,1.3,0.9,2.2s-0.4,1.7-1.1,2.2c-0.7,0.4-1.7,0.8-2.9,0.8c-1.2,0-2.2-0.3-3-0.9
		s-1.3-1.4-1.3-2.6v-0.1h2.2c0,0.6,0.2,1.1,0.6,1.4c0.4,0.3,1,0.4,1.6,0.4c0.6,0,1.1-0.1,1.3-0.4C276.2,19.8,276.3,19.5,276.3,19.1z
		"/>
	<path class="st2" d="M288.9,12.7h-3v9.1h-2.2v-9.1h-3V11h8.2L288.9,12.7L288.9,12.7z"/>
</g>
</svg>
